<svg xmlns="http://www.w3.org/2000/svg" viewBox="0 0 448 512" fill="#fff"><path d="M0 464c0 27 22 48 48 48h352c27 0 48-21 48-48V192H0v272zm320-196c0-7 5-12 12-12h40c7 0 12 5 12 12v40c0 7-5 12-12 12h-40c-7 0-12-5-12-12v-40zm0 128c0-7 5-12 12-12h40c7 0 12 5 12 12v40c0 7-5 12-12 12h-40c-7 0-12-5-12-12v-40zM192 268c0-7 5-12 12-12h40c7 0 12 5 12 12v40c0 7-5 12-12 12h-40c-7 0-12-5-12-12v-40zm0 128c0-7 5-12 12-12h40c7 0 12 5 12 12v40c0 7-5 12-12 12h-40c-7 0-12-5-12-12v-40zM64 268c0-7 5-12 12-12h40c7 0 12 5 12 12v40c0 7-5 12-12 12H76c-7 0-12-5-12-12v-40zm0 128c0-7 5-12 12-12h40c7 0 12 5 12 12v40c0 7-5 12-12 12H76c-7 0-12-5-12-12v-40zM400 64h-48V16c0-9-7-16-16-16h-32c-9 0-16 7-16 16v48H160V16c0-9-7-16-16-16h-32c-9 0-16 7-16 16v48H48C22 64 0 86 0 112v48h448v-48c0-26-21-48-48-48z"/></svg>