<svg xmlns="http://www.w3.org/2000/svg" viewBox="0 0 384 512" fill="#fff"><path d="M336 64h-80a64 64 0 00-128 0H48C22 64 0 86 0 112v352c0 27 22 48 48 48h288c27 0 48-21 48-48V112c0-26-21-48-48-48zM96 424a24 24 0 110-48 24 24 0 110 48zm0-96a24 24 0 110-48 24 24 0 110 48zm0-96a24 24 0 110-48 24 24 0 110 48zm96-192a24 24 0 110 48 24 24 0 110-48zm128 368c0 4-4 8-8 8H168c-4 0-8-4-8-8v-16c0-4 4-8 8-8h144c4 0 8 4 8 8v16zm0-96c0 4-4 8-8 8H168c-4 0-8-4-8-8v-16c0-4 4-8 8-8h144c4 0 8 4 8 8v16zm0-96c0 4-4 8-8 8H168c-4 0-8-4-8-8v-16c0-4 4-8 8-8h144c4 0 8 4 8 8v16z"/></svg>